<?xml version="1.0" encoding="UTF-8" standalone="no"?>
<svg
   xmlns:dc="http://purl.org/dc/elements/1.1/"
   xmlns:cc="http://creativecommons.org/ns#"
   xmlns:rdf="http://www.w3.org/1999/02/22-rdf-syntax-ns#"
   xmlns:svg="http://www.w3.org/2000/svg"
   xmlns="http://www.w3.org/2000/svg"
   xmlns:xlink="http://www.w3.org/1999/xlink"
   xmlns:sodipodi="http://sodipodi.sourceforge.net/DTD/sodipodi-0.dtd"
   xmlns:inkscape="http://www.inkscape.org/namespaces/inkscape"
   id="thumb_ctrl_svg"
   version="1.1"
   inkscape:version="0.48.2 r9819"
   width="200"
   height="200"
   sodipodi:docname="expoThumb.svg">
  <metadata
     id="metadata3055">
    <rdf:RDF>
      <cc:Work
         rdf:about="">
        <dc:format>image/svg+xml</dc:format>
        <dc:type
           rdf:resource="http://purl.org/dc/dcmitype/StillImage" />
        <dc:title />
      </cc:Work>
    </rdf:RDF>
  </metadata>
  <defs
     id="defs3053" />
  <sodipodi:namedview
     pagecolor="#000000"
     bordercolor="#666666"
     borderopacity="1"
     objecttolerance="10"
     gridtolerance="10"
     guidetolerance="10"
     inkscape:pageopacity="0"
     inkscape:pageshadow="2"
     inkscape:window-width="1024"
     inkscape:window-height="717"
     id="namedview3051"
     showgrid="false"
     inkscape:zoom="0.52541026"
     inkscape:cx="400.50162"
     inkscape:cy="371.5338"
     inkscape:window-x="0"
     inkscape:window-y="0"
     inkscape:window-maximized="1"
     inkscape:current-layer="layer6"
     showguides="false"
     fit-margin-top="0"
     fit-margin-left="0"
     fit-margin-right="0"
     fit-margin-bottom="0" />
  <g
     inkscape:groupmode="layer"
     id="layer4"
     inkscape:label="thumbnail_ctrl"
     style="display:inline"
     transform="translate(0.09224044,194.25664)">
    <g
       inkscape:groupmode="layer"
       id="layer5"
       inkscape:label="map"
       style="display:inline"
       sodipodi:insensitive="true">
      <g
         style="display:inline"
         id="g3582"
         transform="matrix(0.32791529,0,0,0.32791529,22.341067,-160.14392)">
        <use
           height="469"
           width="610"
           transform="translate(-145.34839,-16.149821)"
           id="use3422"
           xlink:href="#hall_c"
           y="0"
           x="0" />
        <use
           height="469"
           width="610"
           transform="translate(-145.34839,-16.149821)"
           id="use3424"
           xlink:href="#hall_b"
           y="0"
           x="0" />
        <use
           height="469"
           width="610"
           transform="translate(-145.34839,-16.149821)"
           id="use3426"
           xlink:href="#hall_a"
           y="0"
           x="0" />
        <use
           height="469"
           width="610"
           transform="translate(-145.34839,-16.149821)"
           id="use3428"
           xlink:href="#hall_d"
           y="0"
           x="0" />
        <use
           height="469"
           width="610"
           transform="translate(-145.34839,-16.149821)"
           id="use3430"
           xlink:href="#rect3074"
           y="0"
           x="0" />
        <use
           height="469"
           width="610"
           transform="translate(-145.34839,-16.149821)"
           id="use3432"
           xlink:href="#rect3844"
           y="0"
           x="0" />
        <use
           height="469"
           width="610"
           transform="translate(-145.34839,-16.149821)"
           id="use3434"
           xlink:href="#rect3846"
           y="0"
           x="0" />
        <use
           height="469"
           width="610"
           transform="translate(-145.34839,-16.149821)"
           id="use3436"
           xlink:href="#rect3848"
           y="0"
           x="0" />
        <use
           height="469"
           width="610"
           transform="translate(-145.34839,-16.149821)"
           id="use3438"
           xlink:href="#rect3850"
           y="0"
           x="0" />
        <use
           height="469"
           width="610"
           transform="translate(-145.34839,-16.149821)"
           id="use3440"
           xlink:href="#rect3852"
           y="0"
           x="0" />
        <use
           height="469"
           width="610"
           transform="translate(-145.34839,-16.149821)"
           id="use3442"
           xlink:href="#rect3856"
           y="0"
           x="0" />
        <use
           height="469"
           width="610"
           transform="translate(-145.34839,-16.149821)"
           id="use3444"
           xlink:href="#rect3858"
           y="0"
           x="0" />
        <use
           height="469"
           width="610"
           transform="translate(-145.34839,-16.149821)"
           id="use3446"
           xlink:href="#rect3860"
           y="0"
           x="0" />
        <use
           height="469"
           width="610"
           transform="translate(-145.34839,-16.149821)"
           id="use3448"
           xlink:href="#rect3862"
           y="0"
           x="0" />
        <use
           height="469"
           width="610"
           transform="translate(-145.34839,-16.149821)"
           id="use3450"
           xlink:href="#rect3864"
           y="0"
           x="0" />
        <use
           height="469"
           width="610"
           transform="translate(-145.34839,-16.149821)"
           id="use3452"
           xlink:href="#rect3866"
           y="0"
           x="0" />
        <use
           height="469"
           width="610"
           transform="translate(-145.34839,-16.149821)"
           id="use3454"
           xlink:href="#rect3868"
           y="0"
           x="0" />
        <use
           height="469"
           width="610"
           transform="translate(-145.34839,-16.149821)"
           id="use3456"
           xlink:href="#rect3868-6"
           y="0"
           x="0" />
        <use
           height="469"
           width="610"
           transform="translate(-145.34839,-16.149821)"
           id="use3458"
           xlink:href="#rect3868-0"
           y="0"
           x="0" />
        <use
           height="469"
           width="610"
           transform="translate(-145.34839,-16.149821)"
           id="use3460"
           xlink:href="#rect3868-62"
           y="0"
           x="0" />
        <use
           height="469"
           width="610"
           transform="translate(-145.34839,-16.149821)"
           id="use3462"
           xlink:href="#rect3868-8"
           y="0"
           x="0" />
        <use
           height="469"
           width="610"
           transform="translate(-145.34839,-16.149821)"
           id="use3464"
           xlink:href="#rect3868-6-7"
           y="0"
           x="0" />
        <use
           height="469"
           width="610"
           transform="translate(-145.34839,-16.149821)"
           id="use3466"
           xlink:href="#rect3868-0-9"
           y="0"
           x="0" />
        <use
           height="469"
           width="610"
           transform="translate(-145.34839,-16.149821)"
           id="use3468"
           xlink:href="#rect3868-62-2"
           y="0"
           x="0" />
        <use
           height="469"
           width="610"
           transform="translate(-145.34839,-16.149821)"
           id="use3470"
           inkscape:transform-center-y="-25.549794"
           inkscape:transform-center-x="-17.159185"
           xlink:href="#rect3868-02"
           y="0"
           x="0" />
        <use
           height="469"
           width="610"
           transform="translate(-145.34839,-16.149821)"
           id="use3472"
           inkscape:transform-center-y="-16.030758"
           inkscape:transform-center-x="-17.159185"
           xlink:href="#rect3868-6-3"
           y="0"
           x="0" />
        <use
           height="469"
           width="610"
           transform="translate(-145.34839,-16.149821)"
           id="use3474"
           inkscape:transform-center-y="-6.5117"
           inkscape:transform-center-x="-17.159185"
           xlink:href="#rect3868-0-7"
           y="0"
           x="0" />
        <use
           height="469"
           width="610"
           transform="translate(-145.34839,-16.149821)"
           id="use3476"
           inkscape:transform-center-y="3.0073354"
           inkscape:transform-center-x="-17.159185"
           xlink:href="#rect3868-62-5"
           y="0"
           x="0" />
        <use
           height="469"
           width="610"
           transform="translate(-145.34839,-16.149821)"
           id="use3478"
           xlink:href="#rect3983"
           y="0"
           x="0" />
        <use
           height="469"
           width="610"
           transform="translate(-145.34839,-16.149821)"
           id="use3480"
           xlink:href="#rect3983-9"
           y="0"
           x="0" />
        <use
           height="469"
           width="610"
           transform="translate(-145.34839,-16.149821)"
           id="use3482"
           xlink:href="#rect3983-2"
           y="0"
           x="0" />
        <use
           height="469"
           width="610"
           transform="translate(-145.34839,-16.149821)"
           id="use3484"
           xlink:href="#rect3983-28"
           y="0"
           x="0" />
        <use
           height="469"
           width="610"
           transform="translate(-145.34839,-16.149821)"
           id="use3486"
           xlink:href="#rect3983-97"
           y="0"
           x="0" />
        <use
           height="469"
           width="610"
           transform="translate(-145.34839,-16.149821)"
           id="use3488"
           xlink:href="#rect3983-3"
           y="0"
           x="0" />
        <use
           height="469"
           width="610"
           transform="translate(-145.34839,-16.149821)"
           id="use3490"
           xlink:href="#rect3983-9-6"
           y="0"
           x="0" />
        <use
           height="469"
           width="610"
           transform="translate(-145.34839,-16.149821)"
           id="use3492"
           xlink:href="#rect3983-2-1"
           y="0"
           x="0" />
        <use
           height="469"
           width="610"
           transform="translate(-145.34839,-16.149821)"
           id="use3494"
           xlink:href="#rect3983-28-2"
           y="0"
           x="0" />
        <use
           height="469"
           width="610"
           transform="translate(-145.34839,-16.149821)"
           id="use3496"
           xlink:href="#rect3983-97-9"
           y="0"
           x="0" />
        <use
           height="469"
           width="610"
           transform="translate(-145.34839,-16.149821)"
           id="use3498"
           xlink:href="#rect3983-31"
           y="0"
           x="0" />
        <use
           height="469"
           width="610"
           transform="translate(-145.34839,-16.149821)"
           id="use3500"
           xlink:href="#rect3983-9-9"
           y="0"
           x="0" />
        <use
           height="469"
           width="610"
           transform="translate(-145.34839,-16.149821)"
           id="use3502"
           xlink:href="#rect3983-2-4"
           y="0"
           x="0" />
        <use
           height="469"
           width="610"
           transform="translate(-145.34839,-16.149821)"
           id="use3504"
           xlink:href="#rect3983-28-7"
           y="0"
           x="0" />
        <use
           height="469"
           width="610"
           transform="translate(-145.34839,-16.149821)"
           id="use3506"
           xlink:href="#rect3983-97-8"
           y="0"
           x="0" />
        <use
           height="469"
           width="610"
           transform="translate(-145.34839,-16.149821)"
           id="use3508"
           xlink:href="#rect3983-3-4"
           y="0"
           x="0" />
        <use
           height="469"
           width="610"
           transform="translate(-145.34839,-16.149821)"
           id="use3510"
           xlink:href="#rect3983-9-6-5"
           y="0"
           x="0" />
        <use
           height="469"
           width="610"
           transform="translate(-145.34839,-16.149821)"
           id="use3512"
           xlink:href="#rect3983-2-1-0"
           y="0"
           x="0" />
        <use
           height="469"
           width="610"
           transform="translate(-145.34839,-16.149821)"
           id="use3514"
           xlink:href="#rect3983-28-2-3"
           y="0"
           x="0" />
        <use
           height="469"
           width="610"
           transform="translate(-145.34839,-16.149821)"
           id="use3516"
           xlink:href="#rect3983-97-9-6"
           y="0"
           x="0" />
        <use
           height="469"
           width="610"
           transform="translate(-145.34839,-16.149821)"
           id="use3518"
           xlink:href="#rect3983-1"
           y="0"
           x="0" />
        <use
           height="469"
           width="610"
           transform="translate(-145.34839,-16.149821)"
           id="use3520"
           xlink:href="#rect3983-9-0"
           y="0"
           x="0" />
        <use
           height="469"
           width="610"
           transform="translate(-145.34839,-16.149821)"
           id="use3522"
           xlink:href="#rect3983-2-6"
           y="0"
           x="0" />
        <use
           height="469"
           width="610"
           transform="translate(-145.34839,-16.149821)"
           id="use3524"
           xlink:href="#rect3983-28-3"
           y="0"
           x="0" />
        <use
           height="469"
           width="610"
           transform="translate(-145.34839,-16.149821)"
           id="use3526"
           xlink:href="#rect3983-97-2"
           y="0"
           x="0" />
        <use
           height="469"
           width="610"
           transform="translate(-145.34839,-16.149821)"
           id="use3528"
           xlink:href="#rect3983-3-0"
           y="0"
           x="0" />
        <use
           height="469"
           width="610"
           transform="translate(-145.34839,-16.149821)"
           id="use3530"
           xlink:href="#rect3983-9-6-6"
           y="0"
           x="0" />
        <use
           height="469"
           width="610"
           transform="translate(-145.34839,-16.149821)"
           id="use3532"
           xlink:href="#rect3983-2-1-1"
           y="0"
           x="0" />
        <use
           height="469"
           width="610"
           transform="translate(-145.34839,-16.149821)"
           id="use3534"
           xlink:href="#rect3983-28-2-5"
           y="0"
           x="0" />
        <use
           height="469"
           width="610"
           transform="translate(-145.34839,-16.149821)"
           id="use3536"
           xlink:href="#rect3983-97-9-5"
           y="0"
           x="0" />
        <use
           height="469"
           width="610"
           transform="translate(-145.34839,-16.149821)"
           id="use3538"
           xlink:href="#rect4124"
           y="0"
           x="0" />
        <use
           height="469"
           width="610"
           transform="translate(-145.34839,-16.149821)"
           id="use3540"
           xlink:href="#rect4124-6"
           y="0"
           x="0" />
        <use
           height="469"
           width="610"
           transform="translate(-145.34839,-16.149821)"
           id="use3542"
           xlink:href="#rect4124-5"
           y="0"
           x="0" />
        <use
           height="469"
           width="610"
           transform="translate(-145.34839,-16.149821)"
           id="use3544"
           xlink:href="#rect4124-69"
           y="0"
           x="0" />
        <use
           height="469"
           width="610"
           transform="translate(-145.34839,-16.149821)"
           id="use3546"
           xlink:href="#rect4124-3"
           y="0"
           x="0" />
        <use
           height="469"
           width="610"
           transform="translate(-145.34839,-16.149821)"
           id="use3548"
           xlink:href="#rect4124-7"
           y="0"
           x="0" />
        <use
           height="469"
           width="610"
           transform="translate(-145.34839,-16.149821)"
           id="use3550"
           xlink:href="#rect4124-4"
           y="0"
           x="0" />
        <use
           height="469"
           width="610"
           transform="translate(-145.34839,-16.149821)"
           id="use3552"
           xlink:href="#rect4124-52"
           y="0"
           x="0" />
        <use
           height="469"
           width="610"
           transform="translate(-145.34839,-16.149821)"
           id="use3554"
           xlink:href="#rect4124-54"
           y="0"
           x="0" />
        <use
           height="469"
           width="610"
           transform="translate(-145.34839,-16.149821)"
           id="use3556"
           xlink:href="#rect4124-74"
           y="0"
           x="0" />
        <use
           height="469"
           width="610"
           transform="translate(-145.34839,-16.149821)"
           id="use3558"
           xlink:href="#rect4124-43"
           y="0"
           x="0" />
        <use
           height="469"
           width="610"
           transform="translate(-145.34839,-16.149821)"
           id="use3560"
           xlink:href="#rect4124-0"
           y="0"
           x="0" />
        <use
           height="469"
           width="610"
           transform="translate(-145.34839,-16.149821)"
           id="use3562"
           xlink:href="#rect4124-78"
           y="0"
           x="0" />
        <use
           height="469"
           width="610"
           transform="translate(-145.34839,-16.149821)"
           id="use3564"
           xlink:href="#rect4248"
           y="0"
           x="0" />
        <use
           height="469"
           width="610"
           transform="translate(-145.34839,-16.149821)"
           id="use3566"
           xlink:href="#rect4248-6"
           y="0"
           x="0" />
        <use
           height="469"
           width="610"
           transform="translate(-145.34839,-16.149821)"
           id="use3568"
           xlink:href="#rect4248-8"
           y="0"
           x="0" />
        <use
           height="469"
           width="610"
           transform="translate(-145.34839,-16.149821)"
           id="use3570"
           xlink:href="#rect4248-84"
           y="0"
           x="0" />
        <use
           height="469"
           width="610"
           transform="translate(-145.34839,-16.149821)"
           id="use3572"
           xlink:href="#rect4248-3"
           y="0"
           x="0" />
        <use
           height="469"
           width="610"
           transform="translate(-145.34839,-16.149821)"
           id="use3574"
           xlink:href="#rect4248-1"
           y="0"
           x="0" />
        <use
           height="469"
           width="610"
           transform="translate(-145.34839,-16.149821)"
           id="use3576"
           xlink:href="#rect4296"
           y="0"
           x="0" />
        <use
           height="469"
           width="610"
           transform="translate(-145.34839,-16.149821)"
           id="use3578"
           xlink:href="#rect4298"
           y="0"
           x="0" />
        <use
           height="469"
           width="610"
           transform="translate(-145.34839,-16.149821)"
           id="use3580"
           xlink:href="#rect4298-4"
           y="0"
           x="0" />
      </g>
    </g>
    <g
       inkscape:groupmode="layer"
       id="layer7"
       inkscape:label="select_screen"
       style="display:inline;opacity:0">
      <path
         style="opacity:0.14410477999999999;fill:#ff0000;fill-opacity:1"
         d="m 100.36682,-187.00369 103.41851,-2.10424 -1.05212,89.197203 -33.88949,-1.052123 -8.41694,-12.62541 -45.46183,-1.05212 -1.97272,-52.85234 z"
         id="expo2_thumb"
         inkscape:connector-curvature="0"
         sodipodi:nodetypes="cccccccc"
         onclick="goToRoom(&quot;expo2&quot;)" />
      <path
         style="opacity:0.11790394999999999;fill:#ff0000;fill-opacity:1"
         d="m 6.6930566,-187.39791 90.0873714,-0.57744 14.702932,22.59951 0.83044,54.39975 40.74816,-0.6663 9.4618,13.954073 40.26366,2.349979 1.0521,101.614561 L 8.2712431,5.7501713 z"
         id="expo1_thumb"
         inkscape:connector-curvature="0"
         sodipodi:nodetypes="cccccccccc"
         onclick="goToRoom(&quot;expo1&quot;)" />
    </g>
  </g>
</svg>
